<svg xmlns="http://www.w3.org/2000/svg" xmlns:xlink="http://www.w3.org/1999/xlink" width="500" zoomAndPan="magnify" viewBox="0 0 375 374.999991" height="500" preserveAspectRatio="xMidYMid meet" version="1.0"><defs><clipPath id="d3478f9edb"><path d="M 51.078125 84 L 279.828125 84 L 279.828125 290.984375 L 51.078125 290.984375 Z M 51.078125 84 " clip-rule="nonzero"/></clipPath></defs><rect x="-37.5" width="450" fill="#ffffff" y="-37.499999" height="449.999989" fill-opacity="1"/><rect x="-37.5" width="450" fill="#ffffff" y="-37.499999" height="449.999989" fill-opacity="1"/><g clip-path="url(#d3478f9edb)"><path fill="#000000" d="M 272.148438 84.539062 L 54.292969 182.519531 C 53.785156 182.746094 53.324219 183.042969 52.910156 183.410156 C 52.496094 183.78125 52.144531 184.203125 51.859375 184.675781 C 51.570312 185.152344 51.363281 185.660156 51.230469 186.199219 C 51.101562 186.738281 51.054688 187.285156 51.089844 187.839844 C 51.125 188.390625 51.246094 188.929688 51.445312 189.445312 C 51.644531 189.960938 51.917969 190.4375 52.265625 190.871094 C 52.613281 191.304688 53.015625 191.679688 53.476562 191.988281 C 53.933594 192.300781 54.429688 192.535156 54.960938 192.691406 L 128.691406 214.796875 L 149.324219 286.960938 C 149.460938 287.4375 149.65625 287.886719 149.917969 288.308594 C 150.175781 288.730469 150.484375 289.109375 150.847656 289.445312 C 151.210938 289.78125 151.609375 290.066406 152.050781 290.292969 C 152.488281 290.523438 152.949219 290.6875 153.433594 290.789062 C 153.808594 290.863281 154.183594 290.902344 154.5625 290.90625 C 155.371094 290.90625 156.140625 290.734375 156.871094 290.390625 C 157.605469 290.050781 158.230469 289.570312 158.75 288.949219 L 199.78125 239.722656 L 272.363281 268.738281 C 273.011719 269.003906 273.683594 269.132812 274.382812 269.132812 C 274.742188 269.132812 275.09375 269.097656 275.445312 269.027344 C 275.796875 268.957031 276.136719 268.855469 276.46875 268.71875 C 276.796875 268.582031 277.113281 268.414062 277.410156 268.214844 C 277.707031 268.015625 277.980469 267.789062 278.234375 267.539062 C 278.488281 267.285156 278.714844 267.011719 278.914062 266.714844 C 279.109375 266.417969 279.277344 266.101562 279.414062 265.773438 C 279.550781 265.441406 279.65625 265.101562 279.726562 264.75 C 279.796875 264.402344 279.828125 264.046875 279.828125 263.6875 L 279.828125 89.503906 C 279.828125 89.277344 279.816406 89.050781 279.789062 88.828125 C 279.757812 88.601562 279.71875 88.378906 279.660156 88.160156 C 279.605469 87.941406 279.535156 87.726562 279.453125 87.515625 C 279.371094 87.304688 279.277344 87.101562 279.167969 86.902344 C 279.058594 86.703125 278.9375 86.511719 278.808594 86.328125 C 278.675781 86.144531 278.53125 85.96875 278.378906 85.804688 C 278.222656 85.636719 278.058594 85.480469 277.886719 85.335938 C 277.714844 85.191406 277.53125 85.054688 277.339844 84.933594 C 277.152344 84.808594 276.953125 84.699219 276.75 84.601562 C 276.546875 84.503906 276.335938 84.417969 276.121094 84.34375 C 275.90625 84.273438 275.6875 84.214844 275.46875 84.167969 C 275.246094 84.125 275.019531 84.09375 274.796875 84.074219 C 274.570312 84.058594 274.34375 84.054688 274.117188 84.066406 C 273.890625 84.078125 273.667969 84.101562 273.445312 84.140625 C 273.21875 84.179688 273 84.234375 272.785156 84.300781 C 272.566406 84.367188 272.355469 84.445312 272.148438 84.539062 Z M 72.074219 186.460938 L 240.460938 110.726562 L 130.5625 203.996094 Z M 156.972656 274.074219 L 138.976562 211.136719 L 230.359375 133.574219 L 161.265625 216.664062 C 160.988281 216.996094 160.757812 217.351562 160.566406 217.738281 C 160.375 218.121094 160.234375 218.523438 160.140625 218.941406 C 160.046875 219.363281 160 219.785156 160.007812 220.214844 C 160.011719 220.644531 160.066406 221.066406 160.171875 221.480469 C 160.28125 221.898438 160.433594 222.296875 160.632812 222.675781 C 160.832031 223.054688 161.074219 223.40625 161.359375 223.730469 C 161.640625 224.050781 161.957031 224.335938 162.308594 224.582031 C 162.660156 224.832031 163.035156 225.035156 163.433594 225.191406 L 189.152344 235.472656 Z M 268.9375 255.652344 L 174.429688 217.867188 L 268.9375 104.21875 Z M 268.9375 255.652344 " fill-opacity="1" fill-rule="nonzero"/></g></svg>