<svg xmlns="http://www.w3.org/2000/svg" viewBox="0 0 500 500">
  <rect width="100%" height="100%" fill="#4285f4"/>
  <g transform="translate(100, 100) scale(0.6)">
    <!-- Bear face base -->
    <path d="M250 150 Q400 150 400 300 Q400 450 250 450 Q100 450 100 300 Q100 150 250 150" fill="#c4a484"/>
    
    <!-- Beanie -->
    <path d="M100 200 Q250 150 400 200 L400 100 Q250 50 100 100 Z" fill="#000"/>
    <rect x="150" y="80" width="100" height="30" fill="#ff4444" rx="5"/>
    <text x="160" y="102" font-family="Arial" font-size="20" fill="white">#PUPS</text>
    
    <!-- Glasses -->
    <circle cx="200" cy="250" r="40" fill="none" stroke="#000" stroke-width="10"/>
    <circle cx="300" cy="250" r="40" fill="none" stroke="#000" stroke-width="10"/>
    
    <!-- Peace symbols in glasses -->
    <circle cx="200" cy="250" r="25" fill="#4285f4"/>
    <path d="M200 235 L200 265 M185 250 L215 250" stroke="white" stroke-width="5"/>
    <circle cx="300" cy="250" r="25" fill="#673ab7"/>
    <path d="M300 235 L300 265 M285 250 L315 250" stroke="white" stroke-width="5"/>
  </g>
</svg> 